<mxfile host="Electron" agent="Mozilla/5.0 (Macintosh; Intel Mac OS X 10_15_7) AppleWebKit/537.36 (KHTML, like Gecko) draw.io/28.2.8 Chrome/140.0.7339.240 Electron/38.4.0 Safari/537.36" version="28.2.8">
  <diagram name="Page-1" id="NQ0J2LWjAzG6RPGA7f2Z">
    <mxGraphModel dx="1680" dy="553" grid="1" gridSize="10" guides="1" tooltips="1" connect="1" arrows="1" fold="1" page="0" pageScale="1" pageWidth="850" pageHeight="1100" math="0" shadow="0">
      <root>
        <mxCell id="0" />
        <mxCell id="1" parent="0" />
        <mxCell id="nDIXG2yvQ31oM5EW8LVC-2" value="khách hàng" style="shape=umlActor;verticalLabelPosition=bottom;verticalAlign=top;html=1;outlineConnect=0;" vertex="1" parent="1">
          <mxGeometry x="-30" y="900" width="30" height="60" as="geometry" />
        </mxCell>
        <mxCell id="nDIXG2yvQ31oM5EW8LVC-3" value="" style="rounded=0;whiteSpace=wrap;html=1;" vertex="1" parent="1">
          <mxGeometry x="120" y="660" width="250" height="570" as="geometry" />
        </mxCell>
        <mxCell id="nDIXG2yvQ31oM5EW8LVC-14" style="edgeStyle=orthogonalEdgeStyle;rounded=0;orthogonalLoop=1;jettySize=auto;html=1;entryX=0.5;entryY=0;entryDx=0;entryDy=0;" edge="1" parent="1" source="nDIXG2yvQ31oM5EW8LVC-17" target="nDIXG2yvQ31oM5EW8LVC-5">
          <mxGeometry relative="1" as="geometry" />
        </mxCell>
        <mxCell id="nDIXG2yvQ31oM5EW8LVC-4" value="Đặt chỗ" style="ellipse;whiteSpace=wrap;html=1;" vertex="1" parent="1">
          <mxGeometry x="190" y="700" width="120" height="80" as="geometry" />
        </mxCell>
        <mxCell id="nDIXG2yvQ31oM5EW8LVC-5" value="Chọn ghế&lt;span style=&quot;color: rgba(0, 0, 0, 0); font-family: monospace; font-size: 0px; text-align: start; text-wrap-mode: nowrap;&quot;&gt;%3CmxGraphModel%3E%3Croot%3E%3CmxCell%20id%3D%220%22%2F%3E%3CmxCell%20id%3D%221%22%20parent%3D%220%22%2F%3E%3CmxCell%20id%3D%222%22%20value%3D%22%C4%91%E1%BA%B7t%20ch%E1%BB%97%22%20style%3D%22ellipse%3BwhiteSpace%3Dwrap%3Bhtml%3D1%3B%22%20vertex%3D%221%22%20parent%3D%221%22%3E%3CmxGeometry%20x%3D%22200%22%20y%3D%22730%22%20width%3D%22120%22%20height%3D%2280%22%20as%3D%22geometry%22%2F%3E%3C%2FmxCell%3E%3C%2Froot%3E%3C%2FmxGraphModel%3E&lt;/span&gt;" style="ellipse;whiteSpace=wrap;html=1;" vertex="1" parent="1">
          <mxGeometry x="190" y="820" width="120" height="80" as="geometry" />
        </mxCell>
        <mxCell id="nDIXG2yvQ31oM5EW8LVC-21" style="edgeStyle=orthogonalEdgeStyle;rounded=0;orthogonalLoop=1;jettySize=auto;html=1;" edge="1" parent="1" source="nDIXG2yvQ31oM5EW8LVC-6" target="nDIXG2yvQ31oM5EW8LVC-5">
          <mxGeometry relative="1" as="geometry" />
        </mxCell>
        <mxCell id="nDIXG2yvQ31oM5EW8LVC-6" value="Thanh toán" style="ellipse;whiteSpace=wrap;html=1;" vertex="1" parent="1">
          <mxGeometry x="190" y="940" width="120" height="80" as="geometry" />
        </mxCell>
        <mxCell id="nDIXG2yvQ31oM5EW8LVC-16" style="edgeStyle=orthogonalEdgeStyle;rounded=0;orthogonalLoop=1;jettySize=auto;html=1;entryX=1;entryY=0.5;entryDx=0;entryDy=0;exitX=1.004;exitY=0.607;exitDx=0;exitDy=0;exitPerimeter=0;" edge="1" parent="1" source="nDIXG2yvQ31oM5EW8LVC-7" target="nDIXG2yvQ31oM5EW8LVC-5">
          <mxGeometry relative="1" as="geometry">
            <Array as="points">
              <mxPoint x="350" y="1109" />
              <mxPoint x="350" y="860" />
            </Array>
          </mxGeometry>
        </mxCell>
        <mxCell id="nDIXG2yvQ31oM5EW8LVC-7" value="Hủy vé" style="ellipse;whiteSpace=wrap;html=1;" vertex="1" parent="1">
          <mxGeometry x="190" y="1060" width="120" height="80" as="geometry" />
        </mxCell>
        <mxCell id="nDIXG2yvQ31oM5EW8LVC-10" value="" style="endArrow=classic;html=1;rounded=0;entryX=0;entryY=0.5;entryDx=0;entryDy=0;" edge="1" parent="1" target="nDIXG2yvQ31oM5EW8LVC-4">
          <mxGeometry width="50" height="50" relative="1" as="geometry">
            <mxPoint y="920" as="sourcePoint" />
            <mxPoint x="470" y="830" as="targetPoint" />
          </mxGeometry>
        </mxCell>
        <mxCell id="nDIXG2yvQ31oM5EW8LVC-11" value="" style="endArrow=classic;html=1;rounded=0;entryX=0;entryY=0.5;entryDx=0;entryDy=0;" edge="1" parent="1" target="nDIXG2yvQ31oM5EW8LVC-5">
          <mxGeometry width="50" height="50" relative="1" as="geometry">
            <mxPoint y="920" as="sourcePoint" />
            <mxPoint x="220" y="764" as="targetPoint" />
          </mxGeometry>
        </mxCell>
        <mxCell id="nDIXG2yvQ31oM5EW8LVC-12" value="" style="endArrow=classic;html=1;rounded=0;entryX=0;entryY=0.5;entryDx=0;entryDy=0;" edge="1" parent="1" target="nDIXG2yvQ31oM5EW8LVC-6">
          <mxGeometry width="50" height="50" relative="1" as="geometry">
            <mxPoint y="920" as="sourcePoint" />
            <mxPoint x="180" y="870" as="targetPoint" />
          </mxGeometry>
        </mxCell>
        <mxCell id="nDIXG2yvQ31oM5EW8LVC-13" value="" style="endArrow=classic;html=1;rounded=0;entryX=0;entryY=0.5;entryDx=0;entryDy=0;" edge="1" parent="1" target="nDIXG2yvQ31oM5EW8LVC-7">
          <mxGeometry width="50" height="50" relative="1" as="geometry">
            <mxPoint y="920" as="sourcePoint" />
            <mxPoint x="210" y="960" as="targetPoint" />
          </mxGeometry>
        </mxCell>
        <mxCell id="nDIXG2yvQ31oM5EW8LVC-18" value="" style="edgeStyle=orthogonalEdgeStyle;rounded=0;orthogonalLoop=1;jettySize=auto;html=1;entryX=0.5;entryY=0;entryDx=0;entryDy=0;" edge="1" parent="1" source="nDIXG2yvQ31oM5EW8LVC-4" target="nDIXG2yvQ31oM5EW8LVC-17">
          <mxGeometry relative="1" as="geometry">
            <mxPoint x="250" y="780" as="sourcePoint" />
            <mxPoint x="250" y="820" as="targetPoint" />
          </mxGeometry>
        </mxCell>
        <mxCell id="nDIXG2yvQ31oM5EW8LVC-17" value="&amp;lt;&amp;lt;include&amp;gt;&amp;gt;" style="text;html=1;whiteSpace=wrap;strokeColor=none;fillColor=none;align=center;verticalAlign=middle;rounded=0;" vertex="1" parent="1">
          <mxGeometry x="220" y="780" width="60" height="30" as="geometry" />
        </mxCell>
        <mxCell id="nDIXG2yvQ31oM5EW8LVC-20" value="&amp;lt;&amp;lt;extend&amp;gt;&amp;gt;" style="text;html=1;whiteSpace=wrap;strokeColor=none;fillColor=none;align=center;verticalAlign=middle;rounded=0;" vertex="1" parent="1">
          <mxGeometry x="320" y="980" width="60" height="30" as="geometry" />
        </mxCell>
        <mxCell id="nDIXG2yvQ31oM5EW8LVC-22" value="&amp;lt;&amp;lt;extend&amp;gt;&amp;gt;" style="text;html=1;whiteSpace=wrap;strokeColor=none;fillColor=none;align=center;verticalAlign=middle;rounded=0;" vertex="1" parent="1">
          <mxGeometry x="220" y="900" width="60" height="30" as="geometry" />
        </mxCell>
      </root>
    </mxGraphModel>
  </diagram>
</mxfile>
